<svg width="1000" height="1000" viewBox="0 0 1000 1000" fill="none" xmlns="http://www.w3.org/2000/svg">
<g clip-path="url(#clip0_10_42)">
<rect width="1000" height="1000" fill="url(#paint0_linear_10_42)"/>
<path d="M674.993 658.866L654.531 636.928C654.512 636.945 654.493 636.963 654.475 636.98L674.993 658.866ZM325.118 658.866L345.666 637.009C345.628 636.972 345.589 636.936 345.55 636.9L325.118 658.866ZM251.83 460.112L281.59 463.898C281.593 463.874 281.596 463.849 281.599 463.825L251.83 460.112ZM748.154 460.248L718.38 463.921C718.385 463.961 718.39 464 718.395 464.039L748.154 460.248ZM748.154 460.757L761.489 487.63C772.902 481.967 779.493 469.713 777.927 457.069L748.154 460.757ZM251.83 460.757L222.015 457.427C220.618 469.943 227.185 481.999 238.458 487.612L251.83 460.757ZM674.993 658.866L695.469 680.792C702.731 674.009 706.164 664.071 704.636 654.252L674.993 658.866ZM325.117 658.866L295.467 654.303C293.96 664.092 297.382 673.993 304.611 680.763L325.117 658.866ZM720 488.62C720 546.428 695.164 599.029 654.531 636.928L695.455 680.805C747.449 632.309 780 564.137 780 488.62H720ZM654.475 636.98C614.825 674.151 560.423 697.169 499.992 697.169V757.169C575.883 757.169 644.9 728.2 695.511 680.752L654.475 636.98ZM499.992 697.169C439.672 697.169 385.164 674.142 345.666 637.009L304.569 680.724C355.079 728.21 424.243 757.169 499.992 757.169V697.169ZM345.55 636.9C304.819 599.013 280 546.428 280 488.62H220C220 564.137 252.536 632.324 304.685 680.832L345.55 636.9ZM280 488.62C280 480.277 280.558 472.015 281.59 463.898L222.07 456.327C220.736 466.813 220 477.606 220 488.62H280ZM281.599 463.825C294.365 361.469 386.316 280.07 499.992 280.07V220.07C357.871 220.07 238.793 322.238 222.06 456.4L281.599 463.825ZM499.992 280.07C613.819 280.07 705.74 361.471 718.38 463.921L777.929 456.574C761.355 322.236 642.246 220.07 499.992 220.07V280.07ZM718.395 464.039C719.433 472.188 720 480.324 720 488.62H780C780 477.559 779.242 466.881 777.914 456.457L718.395 464.039ZM734.82 433.883C669.728 466.181 594.155 485.651 504.795 485.651V545.651C603.303 545.651 688.015 524.087 761.489 487.63L734.82 433.883ZM504.795 485.651C414.861 485.651 329.806 466.07 265.202 433.902L238.458 487.612C312.42 524.439 406.828 545.651 504.795 545.651V485.651ZM281.644 464.086C293.341 359.336 391.894 277.415 504.087 280.062L505.502 220.079C365.198 216.769 237.485 318.888 222.015 457.427L281.644 464.086ZM504.087 280.062C616.618 282.717 705.64 361.562 718.382 464.444L777.927 457.069C761.253 322.436 645.469 223.38 505.502 220.079L504.087 280.062ZM654.516 636.941C614.499 674.314 560.845 697.17 499.992 697.17V757.17C576.403 757.17 644.602 728.297 695.469 680.792L654.516 636.941ZM499.992 697.17C439.251 697.17 385.489 674.304 345.624 636.97L304.611 680.763C355.376 728.307 423.723 757.17 499.992 757.17V697.17ZM354.768 663.43C364.805 598.216 428.165 545.651 504.795 545.651V485.651C402.546 485.651 310.589 556.04 295.467 654.303L354.768 663.43ZM504.795 545.651C579.347 545.651 634.889 596.271 645.35 663.48L704.636 654.252C689.652 557.986 609.088 485.651 504.795 485.651V545.651Z" fill="white"/>
</g>
<defs>
<linearGradient id="paint0_linear_10_42" x1="500" y1="0" x2="500" y2="1000" gradientUnits="userSpaceOnUse">
<stop stop-color="#72D5FD"/>
<stop offset="1" stop-color="#2A9EF1"/>
</linearGradient>
<clipPath id="clip0_10_42">
<rect width="1000" height="1000" rx="500" fill="white"/>
</clipPath>
</defs>
</svg>
