<svg width="1000" height="1000" viewBox="0 0 1000 1000" fill="none" xmlns="http://www.w3.org/2000/svg">
<g clip-path="url(#clip0_10_42)">
<rect width="1000" height="1000" fill="url(#paint0_linear_10_42)"/>
<path d="M709.991 704.639L689.529 682.701C689.51 682.718 689.492 682.736 689.473 682.753L709.991 704.639ZM290.141 704.639L310.69 682.782C310.651 682.746 310.612 682.709 310.574 682.673L290.141 704.639ZM202.196 466.135L231.956 469.92C231.959 469.896 231.962 469.872 231.965 469.848L202.196 466.135ZM797.785 466.298L768.011 469.971C768.016 470.01 768.021 470.049 768.026 470.089L797.785 466.298ZM797.785 466.908L811.12 493.782C822.532 488.119 829.124 475.865 827.558 463.221L797.785 466.908ZM202.196 466.908L172.381 463.579C170.984 476.094 177.551 488.15 188.824 493.763L202.196 466.908ZM709.991 704.639L730.468 726.565C737.73 719.782 741.163 709.844 739.634 700.026L709.991 704.639ZM290.141 704.639L260.49 700.076C258.984 709.865 262.405 719.766 269.634 726.536L290.141 704.639ZM770 500.344C770 571.485 739.425 636.162 689.529 682.701L730.454 726.578C791.711 669.442 830 589.193 830 500.344H770ZM689.473 682.753C640.798 728.386 574.054 756.603 499.991 756.603V816.603C589.514 816.603 670.872 782.435 730.51 726.526L689.473 682.753ZM499.991 756.603C426.063 756.603 359.189 728.377 310.69 682.782L269.592 726.497C329.104 782.445 410.634 816.603 499.991 816.603V756.603ZM310.574 682.673C260.555 636.147 230 571.485 230 500.344H170C170 589.193 208.272 669.458 269.708 726.606L310.574 682.673ZM230 500.344C230 490.065 230.687 479.898 231.956 469.92L172.436 462.35C170.865 474.696 170 487.395 170 500.344H230ZM231.965 469.848C247.681 343.84 360.735 244.084 499.991 244.084V184.084C332.29 184.084 192.109 304.609 172.426 462.422L231.965 469.848ZM499.991 244.084C639.426 244.084 752.45 343.841 768.011 469.971L827.56 462.624C808.064 304.607 667.852 184.084 499.991 184.084V244.084ZM768.026 470.089C769.301 480.095 770 490.113 770 500.344H830C830 487.348 829.109 474.788 827.545 462.506L768.026 470.089ZM784.451 440.034C705.502 479.207 613.9 502.782 505.753 502.782V562.782C623.048 562.782 723.789 537.114 811.12 493.782L784.451 440.034ZM505.753 502.782C397.03 502.782 294.029 479.121 215.568 440.053L188.824 493.763C276.642 537.49 388.997 562.782 505.753 562.782V502.782ZM232.01 470.237C246.424 341.158 367.603 240.834 505.046 244.076L506.461 184.093C340.907 180.187 190.568 300.71 172.381 463.579L232.01 470.237ZM505.046 244.076C642.826 247.326 752.329 343.962 768.013 470.595L827.558 463.221C807.942 304.836 671.677 187.99 506.461 184.093L505.046 244.076ZM689.515 682.714C640.409 728.575 574.57 756.603 499.99 756.603V816.603C590.128 816.603 670.512 782.558 730.468 726.565L689.515 682.714ZM499.99 756.603C425.548 756.603 359.576 728.565 310.648 682.743L269.634 726.536C329.463 782.568 410.021 816.603 499.99 816.603V756.603ZM319.792 709.203C332.344 627.641 411.236 562.782 505.753 562.782V502.782C385.617 502.782 278.129 585.466 260.49 700.076L319.792 709.203ZM505.753 562.782C598.191 562.782 667.343 625.696 680.348 709.253L739.634 700.026C722.106 587.411 627.932 502.782 505.753 502.782V562.782Z" fill="white"/>
</g>
<defs>
<linearGradient id="paint0_linear_10_42" x1="500" y1="0" x2="500" y2="1000" gradientUnits="userSpaceOnUse">
<stop stop-color="#72D5FD"/>
<stop offset="1" stop-color="#2A9EF1"/>
</linearGradient>
<clipPath id="clip0_10_42">
<rect width="1000" height="1000" rx="500" fill="white"/>
</clipPath>
</defs>
</svg>
